<?xml version="1.0" encoding="utf-8"?>
<!-- Svg Vector Icons : http://www.onlinewebfonts.com/icon -->
<!DOCTYPE svg PUBLIC "-//W3C//DTD SVG 1.1//EN" "http://www.w3.org/Graphics/SVG/1.1/DTD/svg11.dtd">
<svg version="1.1" xmlns="http://www.w3.org/2000/svg" xmlns:xlink="http://www.w3.org/1999/xlink" x="0px" y="0px" viewBox="0 0 256 256" enable-background="new 0 0 256 256" xml:space="preserve">
<metadata> Svg Vector Icons : http://www.onlinewebfonts.com/icon </metadata>
<g><g><g><path fill="#000000" d="M18.9,18.8L10,28l30.2,30.2l30.5,30.5H40.2H10V128v39.3h25.2h25.6l33.4,33.4l33.8,33.8v-44.3V146l26.2,26.2c14.4,14.4,26.2,27.2,26.2,28.5c0,1.3-5.9,5.6-13.1,9.2c-12.1,6.2-13.1,7.9-13.1,20c0,12.1,0.7,13.1,7.5,11.1c3.9-1.3,14.8-6.6,24.3-11.5l16.7-8.9l12.8,12.8l12.8,12.5l8.8-9.2l8.9-9.2L136.9,118.8L28,10L18.9,18.8z"/><path fill="#000000" d="M154.2,25.7c0,12.5,1,13.8,14.8,20.3c37.4,18,58.7,65.6,47.5,104.9c-3,10.5-2.3,12.1,6.6,21l9.5,9.8l5.9-13.1c3.9-8.8,5.9-21.3,5.9-40.6c0-23.9-1.3-30.8-9.2-47.5c-14.4-30.8-42.3-55.7-73.4-65.2C154.9,12.9,154.2,13.9,154.2,25.7z"/><path fill="#000000" d="M113.3,36.2l-12.8,13.1l13.8,14.1L128,77.2V50c0-14.8-0.3-26.9-1-26.9C126.4,23.1,120.1,29,113.3,36.2z"/><path fill="#000000" d="M154.2,89.6c0,12.5,1.6,15.7,16.4,30.2c16.1,15.7,16.4,16.1,16.4,7.2c0-17.4-13.4-41.3-26.9-48.5C154.9,75.6,154.2,76.9,154.2,89.6z"/></g></g></g>
</svg>